<?xml version="1.0" encoding="utf-8"?>
<?xml-stylesheet type="text/xsl" href="rss1.xsl"?>
<rss version="2.0" xmlns:atom="http://www.w3.org/2005/Atom" xmlns:content="http://purl.org/rss/1.0/modules/content/" xmlns:dc="http://purl.org/dc/elements/1.1/" xmlns:media="http://search.yahoo.com/mrss/">
<channel>
 <title>Getty</title>
 <link>http://www.gettyimg.com/</link>
 <atom:link href="http://www.gettyimg.com/" rel="self" type="application/rss+xml" />

 
                <item>
                <title><![CDATA[【Albums (lossless)】FLAC - Rod Stewart - An Old Raincoat Won't Ever Let You Down [Qobuz Hi-Res 24bit/192kHz]]]></title>
                <link><![CDATA[https://sharemania.us/threads/rod-stewart-an-old-raincoat-wont-ever-let-you-down-qobuz-hi-res-24bit-192khz.242391/]]></link>
                <description><![CDATA[<article>
<blockquote class="messageText SelectQuoteContainer ugc baseHtml">
<img src="https://ia800304.us.archive.org/33/items/0060254713186-600-1/0060254713186_600%20%281%29.jpg" class="bbCodeImage LbImage" alt="[​IMG]" data-url="https://ia800304.us.archive.org/33/items/0060254713186-600-1/0060254713186_600%20%281%29.jpg" style=""> <br>
<br>
<span style="font-size: 18px"><b>ABOUT THE ALBUM</b></span><br>
<ul>
<li>1 disc(s) - 8 track(s)</li>
<li>Total length: 00:32:54</li>
<li>Main artists: <a href="https://www.qobuz.com/gb-en/interpreter/rod-stewart/26671" target="_blank" class="externalLink" rel="nofollow">Rod Stewart</a></li>
<li>Composer: <a href="https://www.qobuz.com/gb-en/composer/various-composers/573076" target="_blank" class="externalLink" rel="nofollow">Various Composers</a></li>
<li>Label: <a href="https://www.qobuz.com/gb-en/label/island-def-jam/download-streaming-albums/31867" target="_blank" class="externalLink" rel="nofollow">Island Def Jam</a></li>
<li>Genre: <a href="https://www.qobuz.com/gb-en/genre/pop-rock/download-streaming-albums" target="_blank" class="externalLink" rel="nofollow">Pop/Rock</a> <a href="https://www.qobuz.com/gb-en/genre/pop/download-streaming-albums" target="_blank" class="externalLink" rel="nofollow">Pop</a></li>
</ul><b><span style="color: #ff0000">DOWNLOAD:</span></b><br>
<div class="bbCodeBlock bbCodeVfcHH HiddenContent">
<div class="attribution type">Hidden Content:</div>
<blockquote>You must reply before you can see the hidden data contained here.</blockquote>
</div>
<div class="messageTextEndMarker">&nbsp;</div>
</blockquote>
</article>]]></description>
                <author><![CDATA[olobersykes99]]></author>
                </item>

                
                <item>
                <title><![CDATA[【PRORES HD】Danna Paola - AÚN TE QUIERO [ProRes 4K]]]></title>
                <link><![CDATA[https://sharemania.us/threads/danna-paola-a%C3%9An-te-quiero-prores-4k.242390/]]></link>
                <description><![CDATA[<article>
<blockquote class="messageText SelectQuoteContainer ugc baseHtml">
<div style="text-align: center"><img src="https://i.ibb.co/vw7My3r/20240417000100.gif" class="bbCodeImage LbImage" alt="[​IMG]" data-url="https://i.ibb.co/vw7My3r/20240417000100.gif" style=""><br>
​</div>
<div class="ToggleTriggerAnchor bbCodeSpoilerContainer">
<button type="button" class="button bbCodeSpoilerButton ToggleTrigger Tooltip JsOnly" data-target="> .SpoilerTarget"><span>Spoiler: <span class="SpoilerTitle">ProRes</span></span></button>
<div class="SpoilerTarget bbCodeSpoilerText">
<div class="bbCodeBlock bbCodeCode">
<div class="type">Code:</div>
<pre>General
Complete name                            : Danna Paola - AÚN TE QUIERO.mov
Format                                   : MPEG-4
Format profile                           : QuickTime
Codec ID                                 : qt   2005.03 (qt  )
File size                                : 17.4 GiB
Duration                                 : 3 min 33 s
Overall bit rate mode                    : Variable
Overall bit rate                         : 700 Mb/s
Frame rate                               : 23.976 FPS
Encoded date                             : 2023-12-02 00:11:01 UTC
Tagged date                              : 2023-12-02 00:16:09 UTC
Writing library                          : Apple QuickTime
TIM                                      : 00:00:00:01
TSC                                      : 24000
TSZ                                      : 1001

Video
ID                                       : 1
Format                                   : ProRes
Format version                           : Version 0
Format profile                           : 422 HQ
Codec ID                                 : apch
Duration                                 : 3 min 33 s
Bit rate mode                            : Variable
Bit rate                                 : 698 Mb/s
Width                                    : 3 840 pixels
Height                                   : 2 160 pixels
Display aspect ratio                     : 16:9
Frame rate mode                          : Constant
Frame rate                               : 23.976 (24000/1001) FPS
Color space                              : YUV
Chroma subsampling                       : 4:2:2
Scan type                                : Progressive
Bits/(Pixel*Frame)                       : 3.510
Stream size                              : 17.3 GiB (100%)
Writing library                          : Apple
Language                                 : English
Encoded date                             : 2023-12-02 00:11:01 UTC
Tagged date                              : 2023-12-02 00:11:01 UTC
Color primaries                          : BT.709
Transfer characteristics                 : BT.709
Matrix coefficients                      : BT.709

Audio
ID                                       : 2
Format                                   : PCM
Format settings                          : Little / Signed
Codec ID                                 : sowt
Duration                                 : 3 min 33 s
Bit rate mode                            : Constant
Bit rate                                 : 1 536 kb/s
Channel(s)                               : 2 channels
Channel layout                           : L R
Sampling rate                            : 48.0 kHz
Bit depth                                : 16 bits
Stream size                              : 39.1 MiB (0%)
Language                                 : English
Encoded date                             : 2023-12-02 00:11:01 UTC
Tagged date                              : 2023-12-02 00:11:01 UTC

Other
ID                                       : 3
Type                                     : Time code
Format                                   : QuickTime TC
Duration                                 : 3 min 33 s
Frame rate                               : 23.976 (24000/1001) FPS
Time code of first frame                 : 00:00:00:01
Time code of last frame                  : 00:03:33:04
Time code, stripped                      : Yes
Language                                 : English
Encoded date                             : 2023-12-02 00:11:01 UTC
Tagged date                              : 2023-12-02 00:11:01 UTC

</pre>
</div><div style="text-align: center">​</div></div>
</div><div style="text-align: center"><br>
<div class="bbCodeBlock bbCodeVfcHH HiddenContent">
<div class="attribution type">Hidden Content:</div>
<blockquote>You must reply before you can see the hidden data contained here.</blockquote>
</div></div>
<div class="messageTextEndMarker">&nbsp;</div>
</blockquote>
</article>]]></description>
                <author><![CDATA[fstambuk]]></author>
                </item>

                </channel></rss>